# xmcd
#
# Track frame offsets: 
#        150
#        21051
#        40449
#        53407
#        83354
#        104054
#        117778
#        143862
#        172037
#        195805
#        212202
#        223466
#
# Disc length: 3290 seconds
#
# Revision: 0
# Processed by: cddbd v1.5.1PL0 Copyright (c) Steve Scherf et al.
# Submitted via: ExactAudioCopy v0.95a5
#
DISCID=a70cd80c
DTITLE=Those Delta Rhythm Kings - Just The Way We Like It
DYEAR=2005
DGENRE=Blues
TTITLE0=Smack Dab In The Middle
TTITLE1=Money's Gettin' Cheaper
TTITLE2=After The Lights Go Down Low
TTITLE3=Moanin'
TTITLE4=I Want A Little Girl
TTITLE5=I Don't Believe
TTITLE6=Don't You Lie To Me
TTITLE7=Mother's Kitchen
TTITLE8=Wind Chill
TTITLE9=Please Don't Leave Me
TTITLE10=Walkin' Slow Behind You
TTITLE11=Gumbo Blues
EXTD=
EXTT0=
EXTT1=
EXTT2=
EXTT3=
EXTT4=
EXTT5=
EXTT6=
EXTT7=
EXTT8=
EXTT9=
EXTT10=
EXTT11=
PLAYORDER=
